<svg width="578" height="510" viewBox="0 0 578 510" fill="none" xmlns="http://www.w3.org/2000/svg">
<path d="M577 471.464H518.51V471.807H577V471.464Z" fill="#535357"/>
<path d="M402.029 474.67H390.14V475.012H402.029V474.67Z" fill="#535357"/>
<path d="M517.721 458.252H491.466V458.594H517.721V458.252Z" fill="#535357"/>
<path d="M79.732 460.551H20.6412V460.893H79.732V460.551Z" fill="#535357"/>
<path d="M100.583 460.551H91.9223V460.893H100.583V460.551Z" fill="#535357"/>
<path d="M256.909 466.325H128.739V466.667H256.909V466.325Z" fill="#535357"/>
<path d="M273.121 387.915H8.94334C6.87379 387.912 4.89025 387.087 3.42814 385.622C1.96602 384.158 1.14483 382.173 1.14484 380.103V8.74378C1.16285 6.6861 1.99199 4.71863 3.45216 3.26871C4.91233 1.81879 6.88559 1.00352 8.94334 1H273.121C275.193 1 277.18 1.82307 278.645 3.28814C280.11 4.75321 280.933 6.74026 280.933 8.81219V380.103C280.933 382.175 280.11 384.162 278.645 385.627C277.18 387.092 275.193 387.915 273.121 387.915ZM8.94334 1.27363C6.96451 1.27726 5.06796 2.06588 3.66999 3.46642C2.27203 4.86695 1.48687 6.76494 1.48688 8.74378V380.103C1.48687 382.082 2.27203 383.98 3.66999 385.38C5.06796 386.781 6.96451 387.57 8.94334 387.573H273.121C275.101 387.57 276.999 386.781 278.399 385.381C279.8 383.981 280.588 382.083 280.591 380.103V8.74378C280.588 6.76368 279.8 4.86572 278.399 3.46558C276.999 2.06544 275.101 1.27725 273.121 1.27363H8.94334Z" fill="#535357" stroke="#535357" stroke-width="0.5"/>
<path d="M569.068 387.915H304.876C302.805 387.912 300.82 387.087 299.356 385.623C297.892 384.159 297.068 382.174 297.064 380.103V8.74378C297.086 6.68485 297.918 4.71739 299.38 3.26785C300.842 1.81831 302.817 1.00349 304.876 1H569.068C571.123 1.00712 573.093 1.82397 574.55 3.27351C576.007 4.72304 576.834 6.68847 576.852 8.74378V380.103C576.852 382.17 576.033 384.153 574.574 385.618C573.115 387.082 571.135 387.908 569.068 387.915ZM304.876 1.27363C302.896 1.27725 300.998 2.06544 299.598 3.46558C298.198 4.86572 297.41 6.76368 297.406 8.74378V380.103C297.41 382.083 298.198 383.981 299.598 385.381C300.998 386.781 302.896 387.57 304.876 387.573H569.068C571.048 387.57 572.946 386.781 574.346 385.381C575.746 383.981 576.534 382.083 576.538 380.103V8.74378C576.534 6.76368 575.746 4.86572 574.346 3.46558C572.946 2.06544 571.048 1.27725 569.068 1.27363H304.876Z" fill="#535357" stroke="#535357" stroke-width="0.5"/>
<path d="M18.1785 359.102L61.9596 358.938C63.665 358.938 65.3006 359.615 66.5065 360.821C67.7124 362.027 68.3899 363.663 68.3899 365.368V380.815C68.3899 382.524 69.0688 384.163 70.2773 385.371C71.4858 386.58 73.1249 387.259 74.834 387.259H139.137C140.845 387.259 142.484 386.582 143.694 385.377C144.904 384.172 145.588 382.536 145.595 380.828V324.104C145.597 323.261 145.765 322.425 146.09 321.647C146.415 320.868 146.89 320.161 147.489 319.566C148.088 318.972 148.798 318.501 149.578 318.181C150.359 317.861 151.195 317.698 152.039 317.701H165.721C167.43 317.701 169.069 317.022 170.277 315.814C171.486 314.605 172.165 312.966 172.165 311.257V280.31C172.165 278.604 172.842 276.969 174.048 275.763C175.254 274.557 176.89 273.879 178.595 273.879H201.019C202.724 273.883 204.357 274.562 205.562 275.767C206.767 276.972 207.446 278.605 207.45 280.31V289.422C207.45 291.131 208.129 292.77 209.337 293.978C210.546 295.187 212.185 295.866 213.894 295.866H215.987C217.692 295.866 219.328 295.188 220.534 293.982C221.74 292.776 222.417 291.141 222.417 289.435V255.751C222.417 254.042 223.096 252.403 224.305 251.195C225.513 249.986 227.152 249.307 228.861 249.307H251.067C252.774 249.311 254.411 249.991 255.619 251.199C256.827 252.406 257.507 254.043 257.511 255.751V289.49C257.511 291.195 258.188 292.831 259.394 294.037C260.6 295.243 262.235 295.92 263.941 295.92H270.864C272.569 295.92 274.205 295.243 275.411 294.037C276.617 292.831 277.294 291.195 277.294 289.49V221.492V187.425H278.662V208.413C278.782 208.226 278.915 208.048 279.059 207.879L330.16 178.532C331.241 177.356 331.856 178.532 331.856 176.959V134.956L335.372 132.439L399.211 86.7015V68.4913H400.579V85.7164L400.839 85.5248V289.504C400.839 291.213 401.518 292.852 402.726 294.06C403.935 295.269 405.574 295.948 407.283 295.948H415.67C416.515 295.949 417.353 295.784 418.135 295.462C418.916 295.14 419.627 294.666 420.226 294.069C420.824 293.472 421.299 292.762 421.623 291.981C421.947 291.2 422.114 290.363 422.114 289.517L424.125 213.366C424.14 212.631 424.313 211.908 424.631 211.245L437.109 185.25H438.039V155.752C438.039 154.372 438.586 153.049 439.561 152.071C440.536 151.094 441.858 150.543 443.238 150.54H445.756V129.689H447.124V150.54H448.492C449.873 150.543 451.197 151.094 452.174 152.071C453.151 153.047 453.701 154.371 453.705 155.752V157.121H459.547V155.752C459.547 154.372 460.094 153.049 461.069 152.071C462.043 151.094 463.365 150.543 464.746 150.54H466.962V129.689H468.33V150.54H469.945C471.326 150.543 472.65 151.094 473.627 152.071C474.603 153.047 475.154 154.371 475.157 155.752V185.195H476.088L488.579 211.19C488.891 211.855 489.063 212.577 489.085 213.311L491.137 289.381C491.137 291.09 491.816 292.729 493.025 293.937C494.233 295.146 495.872 295.825 497.581 295.825H509.361C511.066 295.828 512.699 296.507 513.904 297.712C515.109 298.917 515.788 300.551 515.792 302.255V311.121C515.79 311.966 515.955 312.803 516.277 313.584C516.6 314.364 517.074 315.074 517.671 315.672C518.268 316.269 518.978 316.743 519.759 317.065C520.54 317.388 521.377 317.553 522.222 317.551H530.636C532.153 317.542 533.624 318.072 534.787 319.047C535.95 320.022 536.728 321.378 536.984 322.873L559.395 440.644C559.477 441.045 559.518 441.453 559.518 441.862C559.511 443.57 558.827 445.205 557.617 446.41C556.407 447.616 554.768 448.292 553.06 448.292H18.2469C16.8924 448.388 18.1785 359.102 18.1785 359.102Z" fill="#202024"/>
<path d="M547.547 63.1418H457.399C445.851 63.1418 443.06 46.9702 453.964 43.1804L454.389 43.0435C442.321 32.9876 468.768 11.7948 497.499 41.1418C495.256 31.3595 520.758 34.8893 528.625 48.2425C531.457 39.4726 555.838 54.7002 547.547 63.1418Z" fill="#202024"/>
<path d="M94.0291 186.974H43.0926C43.0926 186.974 31.1485 182.473 32.6946 170.556C34.2406 158.639 52.2729 168.572 52.2729 168.572C52.2729 168.572 46.8003 151.949 64.2717 156.669C69.1948 157.926 73.6379 160.607 77.0449 164.377C80.4519 168.146 82.6715 172.837 83.4259 177.862C83.4259 177.862 106.384 173.867 94.0291 186.974Z" fill="#202024"/>
<path d="M456.851 317.961H443.963V364.164H456.851V317.961Z" fill="#3C3C42"/>
<path d="M482.162 347.65H469.274V364.164H482.162V347.65Z" fill="#3C3C42"/>
<path d="M507.459 339.469H494.571V364.15H507.459V339.469Z" fill="#3C3C42"/>
<path d="M532.77 354.696H519.882V364.164H532.77V354.696Z" fill="#3C3C42"/>
<path d="M558.081 330.138H545.193V364.15H558.081V330.138Z" fill="#3C3C42"/>
<path d="M117.466 321.423H23.7196V332.902H117.466V321.423Z" fill="#3C3C42"/>
<path d="M150.972 337.718H23.7196V349.196H150.972V337.718Z" fill="#3C3C42"/>
<path d="M60.8378 353.862H23.7196V365.341H60.8378V353.862Z" fill="#3C3C42"/>
<path d="M290.907 509.969C437.413 509.969 556.18 503.035 556.18 494.481C556.18 485.928 437.413 478.994 290.907 478.994C144.401 478.994 25.6349 485.928 25.6349 494.481C25.6349 503.035 144.401 509.969 290.907 509.969Z" fill="#202024"/>
<path d="M417.544 152.277H381.343L345.155 188.465L277.089 222.505H205.78L135.553 292.733H84.9446V304.868H140.574L210.802 234.64H279.948L352.338 198.439L386.377 164.413H420.404L471.08 139.075V125.502L417.544 152.277Z" fill="#00875F"/>
<path d="M84.5205 240.701C82.8977 240.692 81.2892 241.004 79.7874 241.619C78.2855 242.234 76.92 243.139 75.7693 244.284C74.6187 245.428 73.7056 246.788 73.0825 248.287C72.4594 249.785 72.1386 251.392 72.1387 253.015C72.1387 257.366 77.1598 266.245 80.7991 272.169C82.8787 275.521 84.5205 277.902 84.5205 277.902C84.5205 277.902 86.1623 275.521 88.2145 272.169C91.8675 266.3 96.875 257.42 96.875 253.015C96.875 251.394 96.5551 249.79 95.9338 248.293C95.3124 246.797 94.4017 245.437 93.254 244.293C92.1062 243.149 90.7439 242.243 89.2453 241.627C87.7466 241.011 86.141 240.696 84.5205 240.701ZM84.5205 259.158C83.4045 259.161 82.3128 258.832 81.3837 258.214C80.4547 257.595 79.7301 256.715 79.3017 255.685C78.8734 254.654 78.7606 253.519 78.9777 252.425C79.1947 251.33 79.7319 250.324 80.521 249.535C81.3102 248.746 82.3158 248.209 83.4105 247.992C84.5052 247.775 85.6397 247.888 86.6703 248.316C87.7008 248.744 88.581 249.469 89.1994 250.398C89.8177 251.327 90.1464 252.419 90.1437 253.535C90.1437 255.026 89.5512 256.456 88.4967 257.511C87.4421 258.565 86.0119 259.158 84.5205 259.158Z" fill="#00875F"/>
<g opacity="0.5">
<path d="M417.544 152.277H381.343L345.155 188.465L277.089 222.505H205.78L135.553 292.732H84.9446V304.868H140.574L210.802 234.64H279.948L352.338 198.439L386.377 164.413H420.404L471.08 139.075V125.502L417.544 152.277Z" fill="white"/>
<path d="M84.5205 240.701C82.8977 240.692 81.2891 241.004 79.7873 241.619C78.2855 242.234 76.92 243.139 75.7693 244.284C74.6186 245.428 73.7055 246.788 73.0824 248.287C72.4593 249.785 72.1386 251.392 72.1386 253.015C72.1386 257.366 77.1598 266.245 80.7991 272.169C82.8787 275.521 84.5205 277.902 84.5205 277.902C84.5205 277.902 86.1622 275.521 88.2145 272.169C91.8675 266.3 96.8749 257.42 96.8749 253.015C96.8749 251.394 96.5551 249.79 95.9337 248.293C95.3123 246.797 94.4017 245.437 93.2539 244.293C92.1061 243.149 90.7439 242.243 89.2452 241.627C87.7465 241.011 86.1409 240.696 84.5205 240.701ZM84.5205 259.158C83.4044 259.161 82.3127 258.832 81.3837 258.214C80.4546 257.595 79.73 256.715 79.3017 255.685C78.8733 254.654 78.7606 253.519 78.9776 252.425C79.1947 251.33 79.7318 250.324 80.521 249.535C81.3101 248.746 82.3157 248.209 83.4105 247.992C84.5052 247.775 85.6397 247.888 86.6702 248.316C87.7008 248.744 88.581 249.469 89.1993 250.398C89.8177 251.327 90.1463 252.419 90.1436 253.535C90.1436 255.026 89.5511 256.456 88.4966 257.511C87.4421 258.565 86.0118 259.158 84.5205 259.158Z" fill="white"/>
</g>
<path d="M471.08 67.3694C469.014 67.3676 466.968 67.7728 465.058 68.5618C463.148 69.3508 461.413 70.5083 459.951 71.968C458.488 73.4278 457.328 75.1613 456.535 77.0695C455.743 78.9777 455.334 81.0233 455.333 83.0895C455.333 88.5622 461.708 99.9316 466.36 107.402C469 111.684 471.08 114.708 471.08 114.708C471.08 114.708 473.173 111.684 475.8 107.402C480.438 99.9316 486.814 88.6169 486.814 83.0895C486.81 78.919 485.151 74.9206 482.201 71.9729C479.251 69.0252 475.251 67.3694 471.08 67.3694ZM471.08 90.8607C469.662 90.8607 468.276 90.4402 467.097 89.6524C465.918 88.8647 464.999 87.745 464.457 86.435C463.914 85.125 463.772 83.6835 464.049 82.2929C464.325 80.9022 465.008 79.6248 466.011 78.6222C467.013 77.6195 468.291 76.9367 469.681 76.6601C471.072 76.3835 472.514 76.5255 473.824 77.0681C475.134 77.6107 476.253 78.5296 477.041 79.7085C477.829 80.8875 478.249 82.2736 478.249 83.6915C478.251 84.6335 478.067 85.5665 477.707 86.4371C477.348 87.3078 476.82 88.0988 476.153 88.7649C475.487 89.431 474.696 89.959 473.826 90.3186C472.955 90.6783 472.022 90.8625 471.08 90.8607Z" fill="#00875F"/>
<g opacity="0.5">
<path d="M471.08 67.3694C469.014 67.3676 466.968 67.7728 465.058 68.5618C463.148 69.3508 461.413 70.5083 459.951 71.968C458.488 73.4278 457.328 75.1613 456.535 77.0695C455.743 78.9777 455.334 81.0233 455.333 83.0895C455.333 88.5622 461.708 99.9316 466.36 107.402C469 111.684 471.08 114.708 471.08 114.708C471.08 114.708 473.173 111.684 475.8 107.402C480.438 99.9316 486.814 88.6169 486.814 83.0895C486.81 78.919 485.151 74.9206 482.201 71.9729C479.251 69.0252 475.251 67.3694 471.08 67.3694ZM471.08 90.8607C469.662 90.8607 468.276 90.4402 467.097 89.6524C465.918 88.8647 464.999 87.745 464.457 86.435C463.914 85.125 463.772 83.6835 464.049 82.2929C464.325 80.9022 465.008 79.6248 466.011 78.6222C467.013 77.6195 468.291 76.9367 469.681 76.6601C471.072 76.3835 472.514 76.5255 473.824 77.0681C475.134 77.6107 476.253 78.5296 477.041 79.7085C477.829 80.8875 478.249 82.2736 478.249 83.6915C478.251 84.6335 478.067 85.5665 477.707 86.4371C477.348 87.3078 476.82 88.0988 476.153 88.7649C475.487 89.431 474.696 89.959 473.826 90.3186C472.955 90.6783 472.022 90.8625 471.08 90.8607Z" fill="white"/>
</g>
<path d="M176.639 69.0112C176.117 68.662 175.485 68.5178 174.864 68.6062C174.243 68.6945 173.676 69.0093 173.273 69.49L169.894 74.5385L153.64 64.6878C153.121 64.3938 152.516 64.2904 151.929 64.3953C151.342 64.5002 150.81 64.8069 150.425 65.2624L144.829 72.4453C144.627 72.6632 144.473 72.9215 144.378 73.2032C144.283 73.4848 144.248 73.7834 144.277 74.0793C144.305 74.3752 144.396 74.6618 144.543 74.9201C144.69 75.1785 144.89 75.4028 145.13 75.5783C145.651 75.9275 146.283 76.0717 146.904 75.9833C147.526 75.895 148.092 75.5802 148.496 75.0995L152.682 69.6268L156.212 71.7612L148.687 81.4751L135.567 98.3035C135.375 98.5299 135.233 98.7945 135.151 99.0797C135.069 99.365 135.049 99.6644 135.092 99.9581C135.134 100.252 135.239 100.533 135.399 100.783C135.559 101.033 135.77 101.247 136.018 101.409C136.399 101.663 136.847 101.796 137.304 101.792C137.699 101.796 138.089 101.708 138.444 101.538C138.8 101.367 139.112 101.117 139.356 100.807L150.712 86.2637L151.04 85.8395C151.369 85.3352 151.88 84.9769 152.466 84.8393C153.052 84.7017 153.668 84.7953 154.187 85.1007L157.416 87.194L148.742 92.1057C148.473 92.2426 148.234 92.4321 148.04 92.6629C147.845 92.8937 147.699 93.1612 147.61 93.4494C147.521 93.7377 147.49 94.0409 147.52 94.3412C147.55 94.6415 147.64 94.9328 147.784 95.1977C148.13 95.7097 148.66 96.0691 149.263 96.2015C149.867 96.3339 150.498 96.2293 151.027 95.9092L162.957 89.1505C163.302 88.963 163.595 88.6943 163.812 88.3677C164.029 88.041 164.163 87.6663 164.202 87.2761C164.23 86.9035 164.157 86.5303 163.991 86.1957C163.825 85.861 163.572 85.5773 163.258 85.3743L160.33 83.4863L165.037 77.0696L168.936 79.4365C169.307 79.6512 169.725 79.7689 170.154 79.7786C170.532 79.7722 170.905 79.6874 171.248 79.5296C171.592 79.3718 171.9 79.1445 172.151 78.8619L176.94 72.1443C177.142 71.9263 177.295 71.668 177.391 71.3863C177.486 71.1047 177.52 70.8061 177.492 70.5102C177.464 70.2143 177.373 69.9277 177.226 69.6694C177.079 69.411 176.879 69.1867 176.639 69.0112Z" fill="#00875F"/>
<path d="M165.994 70.0647C167.221 70.0859 168.41 69.6489 169.331 68.8392C170.253 68.0295 170.838 66.9053 170.974 65.6865C171.001 65.1026 170.907 64.5194 170.697 63.9738C170.487 63.4282 170.166 62.9321 169.755 62.5168C169.343 62.1015 168.85 61.776 168.306 61.561C167.763 61.3459 167.181 61.246 166.596 61.2674C165.37 61.2462 164.18 61.6832 163.259 62.4929C162.338 63.3026 161.752 64.4267 161.616 65.6455C161.587 66.23 161.68 66.8141 161.89 67.3607C162.099 67.9072 162.42 68.4042 162.831 68.8199C163.243 69.2356 163.737 69.561 164.282 69.7753C164.826 69.9896 165.41 70.0882 165.994 70.0647Z" fill="#00875F"/>
<path d="M345.004 66.1244C344.842 66.1226 344.682 66.0877 344.534 66.0218C344.386 65.956 344.252 65.8605 344.142 65.7413L335.933 56.5883C335.746 56.3593 335.654 56.0668 335.677 55.7716C335.699 55.4765 335.835 55.2015 336.055 55.004C336.276 54.8064 336.564 54.7016 336.86 54.7113C337.156 54.7209 337.437 54.8444 337.644 55.056L345.853 64.2089C346.054 64.4346 346.159 64.7308 346.143 65.033C346.128 65.3353 345.994 65.6193 345.77 65.8234C345.563 66.0183 345.289 66.1261 345.004 66.1244Z" fill="#00875F"/>
<path d="M338.533 38.5149V37.0647H333.854V38.6244C329.136 39.2776 324.844 41.7019 321.85 45.4051C318.855 49.1082 317.383 53.8124 317.731 58.562C318.079 63.3117 320.223 67.7507 323.725 70.9773C327.228 74.2039 331.828 75.9761 336.59 75.9341C341.41 75.9617 346.056 74.1326 349.564 70.8263C353.071 67.52 355.171 62.9902 355.428 58.1768C355.685 53.3634 354.079 48.6358 350.944 44.9749C347.808 41.3139 343.383 39.0006 338.588 38.5149H338.533ZM336.535 73.6356C333.288 73.6356 330.114 72.6727 327.414 70.8687C324.714 69.0646 322.61 66.5005 321.367 63.5005C320.125 60.5005 319.799 57.1994 320.433 54.0147C321.066 50.8299 322.63 47.9045 324.926 45.6085C327.222 43.3124 330.148 41.7487 333.332 41.1152C336.517 40.4817 339.818 40.8069 342.818 42.0495C345.818 43.2921 348.382 45.3965 350.186 48.0964C351.99 50.7963 352.953 53.9705 352.953 57.2177C352.935 61.5664 351.2 65.7319 348.125 68.807C345.05 71.882 340.884 73.6176 336.535 73.6356Z" fill="#00875F"/>
<path d="M339.313 33.2749H333.074V36.449H339.313V33.2749Z" fill="#00875F"/>
<g opacity="0.6">
<path d="M345.004 66.1244C344.842 66.1226 344.682 66.0877 344.534 66.0218C344.386 65.956 344.252 65.8605 344.142 65.7413L335.933 56.5883C335.746 56.3593 335.654 56.0668 335.677 55.7716C335.699 55.4765 335.835 55.2015 336.055 55.004C336.276 54.8064 336.564 54.7016 336.86 54.7113C337.156 54.7209 337.437 54.8444 337.644 55.056L345.853 64.2089C346.054 64.4346 346.159 64.7308 346.143 65.033C346.128 65.3353 345.994 65.6193 345.77 65.8234C345.563 66.0183 345.289 66.1261 345.004 66.1244Z" fill="#00875F"/>
<path d="M338.533 38.5149V37.0647H333.854V38.6244C329.136 39.2776 324.844 41.7019 321.85 45.4051C318.855 49.1082 317.383 53.8124 317.731 58.562C318.079 63.3117 320.223 67.7507 323.725 70.9773C327.228 74.2039 331.828 75.9761 336.59 75.9341C341.41 75.9617 346.056 74.1326 349.564 70.8263C353.071 67.52 355.171 62.9902 355.428 58.1768C355.685 53.3634 354.079 48.6358 350.944 44.9749C347.808 41.3139 343.383 39.0006 338.588 38.5149H338.533ZM336.535 73.6356C333.288 73.6356 330.114 72.6727 327.414 70.8687C324.714 69.0646 322.61 66.5005 321.367 63.5005C320.125 60.5005 319.799 57.1994 320.433 54.0147C321.066 50.8299 322.63 47.9045 324.926 45.6085C327.222 43.3124 330.148 41.7487 333.332 41.1152C336.517 40.4817 339.818 40.8069 342.818 42.0495C345.818 43.2921 348.382 45.3965 350.186 48.0964C351.99 50.7963 352.953 53.9705 352.953 57.2177C352.935 61.5664 351.2 65.7319 348.125 68.807C345.05 71.882 340.884 73.6176 336.535 73.6356Z" fill="#00875F"/>
<path d="M339.313 33.2749H333.074V36.449H339.313V33.2749Z" fill="#00875F"/>
</g>
<path d="M456.489 415.337H463.412C457.515 421.48 449.019 427.541 440.946 433.67L435.474 437.693L435.351 437.775L430.015 433.315C423.174 427.418 416.018 421.261 410.943 415.145H421.217L425.719 399.699L432.436 429.306L438.62 414.147L442.52 422.602L447.171 407.826L452.302 422.246L456.489 415.337Z" fill="#00875F"/>
<path d="M464.875 412.108H455.586L452.671 416.91L447.076 401.108L442.287 416.541L438.593 408.524L432.861 422.41L425.883 391.723L420.014 411.93H409.643C403.281 403.721 401.147 395.622 409.369 388.439C419.658 379.437 431.574 387.823 437.608 393.269C443.97 388.22 457.939 377.89 468.652 391.326C474.042 398.057 470.8 405.404 464.875 412.108Z" fill="#00875F"/>
<path d="M386.78 326.759C385.945 327.384 385.012 327.865 384.018 328.183C381.286 329.127 378.311 329.089 375.604 328.076C373.728 327.391 372.04 326.272 370.679 324.811C369.113 323.123 368.03 321.045 367.542 318.794C367.268 317.583 367.181 316.338 367.285 315.101C367.375 313.807 367.667 312.535 368.152 311.332C369.163 308.778 370.965 306.616 373.294 305.161C375.623 303.706 378.358 303.036 381.096 303.249C383.641 303.45 386.07 304.4 388.076 305.979C389.882 307.406 391.273 309.292 392.101 311.439C392.819 313.303 393.087 315.309 392.883 317.295C392.597 320.174 391.322 322.863 389.275 324.907C388.552 325.658 387.709 326.284 386.78 326.759C387.586 326.129 388.354 325.454 389.082 324.736C390.992 322.68 392.154 320.039 392.379 317.242C392.547 315.34 392.265 313.426 391.555 311.653C390.744 309.62 389.406 307.839 387.68 306.493C386.754 305.767 385.726 305.183 384.629 304.759C383.488 304.3 382.28 304.029 381.053 303.956C378.466 303.76 375.885 304.395 373.684 305.767C371.483 307.14 369.778 309.18 368.816 311.589C368.352 312.726 368.07 313.929 367.981 315.154C367.873 316.325 367.946 317.506 368.195 318.655C368.616 320.661 369.53 322.53 370.855 324.093C372.181 325.655 373.875 326.863 375.786 327.605C378.393 328.62 381.266 328.729 383.943 327.915C385.87 327.327 386.738 326.684 386.78 326.759Z" fill="#E0E0E0"/>
<path d="M389.082 343.407L389.403 343.696L390.367 344.627L394.135 348.342H393.996L403.888 342.079L403.813 342.293C403.096 340.28 402.304 338.011 401.458 335.623V335.506L401.544 335.409C403.276 333.558 404.749 331.48 405.922 329.232L405.986 329.104H413.213L412.956 329.296C413.78 325.71 414.658 321.888 415.568 317.884L415.718 318.205L409.348 315.143L409.187 315.069V314.887C409.105 312.344 408.684 309.824 407.935 307.393L407.881 307.211L408.01 307.082C409.573 305.54 411.286 303.87 413.031 302.093V302.5L406.693 292.619L407.089 292.758L400.419 295.092L400.216 295.156L400.066 295.017C398.223 293.293 396.161 291.821 393.932 290.638L393.739 290.542V290.328C393.739 288.112 393.739 285.703 393.739 283.251L394.017 283.604L382.659 280.982L383.066 280.789L379.982 287.212L379.897 287.405H379.672C377.155 287.486 374.661 287.9 372.253 288.636L371.889 288.54L371.814 288.465L371.653 288.304L371.343 287.983L370.722 287.351L369.469 286.099L366.986 283.594L367.435 283.647L357.5 289.846L357.65 289.418C358.428 291.666 359.202 293.893 359.973 296.098L360.048 296.301L359.898 296.462C358.167 298.299 356.694 300.363 355.52 302.596L355.413 302.778H355.209H348.133L348.465 302.511C347.565 306.393 346.684 310.194 345.82 313.912L345.638 313.538L352.008 316.621L352.18 316.706V316.899C352.249 319.441 352.663 321.962 353.411 324.393L353.464 324.575L353.325 324.704L348.293 329.671V329.296L354.471 339.242L354.149 339.135L360.83 336.823L360.98 336.769L361.097 336.876C362.942 338.611 365.009 340.094 367.242 341.287L367.371 341.351V341.501C367.371 344.07 367.371 346.383 367.317 348.567L367.146 348.363L378.537 351.05L378.355 351.136L381.481 344.788V344.723H381.545C383.462 344.67 385.369 344.433 387.241 344.017L388.622 343.685L389.082 343.589L388.632 343.749C388.333 343.845 387.883 343.985 387.262 344.135C385.394 344.605 383.481 344.881 381.556 344.959L381.652 344.884L378.623 351.307L378.558 351.425H378.441L367.018 348.845H366.857V348.674C366.857 346.533 366.857 344.167 366.857 341.597L366.975 341.811C364.695 340.613 362.585 339.115 360.701 337.358L360.958 337.411L354.289 339.756L354.085 339.831L353.967 339.649L347.747 329.725L347.619 329.521L347.79 329.35L352.8 324.372L352.726 324.682C351.962 322.214 351.533 319.653 351.452 317.07L351.634 317.349L345.21 314.287L344.975 314.169L345.028 313.912L347.694 302.254L347.747 301.986H348.026H355.102L354.792 302.168C356.001 299.88 357.509 297.763 359.277 295.873L359.202 296.237C358.432 294.032 357.654 291.805 356.869 289.557L356.772 289.289L357.019 289.139L366.943 282.941L367.189 282.78L367.392 282.984L369.876 285.489L371.118 286.752L371.75 287.384L372.06 287.705L372.221 287.855L372.296 287.94C371.568 287.758 372.092 287.887 371.932 287.844C374.402 287.088 376.961 286.663 379.543 286.581L379.233 286.784L382.316 280.361L382.434 280.104L382.712 280.168L394.114 282.802L394.392 282.866V283.155C394.392 285.596 394.392 288.015 394.392 290.231L394.21 289.921C396.495 291.13 398.608 292.639 400.494 294.407L400.152 294.332L406.832 292.019L407.078 291.923L407.228 292.158L413.416 302.093L413.545 302.307L413.363 302.489C411.618 304.224 409.894 305.915 408.331 307.457L408.417 307.146C409.167 309.617 409.588 312.177 409.669 314.758L409.498 314.501L415.868 317.595L416.071 317.691L416.018 317.906C415.086 321.909 414.187 325.721 413.352 329.307V329.511H413.149H406.072L406.275 329.382C405.067 331.654 403.558 333.753 401.79 335.623V335.409C402.625 337.818 403.396 340.077 404.091 342.1L404.145 342.24L404.017 342.315L394.05 348.46H393.975L393.91 348.395L390.26 344.627L389.328 343.642C389.241 343.57 389.158 343.491 389.082 343.407Z" fill="#E0E0E0"/>
<path fill-rule="evenodd" clip-rule="evenodd" d="M412.367 258.703C408.915 259.767 405.336 260.364 401.726 260.48L397.368 269.484L381.246 265.758V255.748C378.048 254.064 375.092 251.958 372.456 249.485L363.014 252.783L354.256 238.737L361.354 231.703C360.293 228.247 359.699 224.665 359.588 221.051L350.574 216.704L354.353 200.55H364.352C366.043 197.354 368.153 194.398 370.625 191.76L367.328 182.35L381.374 173.593L388.408 180.69C391.86 179.629 395.439 179.035 399.049 178.924L403.406 169.91L419.529 173.646V183.645C422.72 185.334 425.672 187.44 428.308 189.908L437.75 186.621L446.518 200.657L439.399 207.744C440.469 211.195 441.066 214.774 441.176 218.385L450.18 222.742L446.454 238.865H436.455C434.763 242.057 432.653 245.009 430.181 247.644L433.479 257.086L419.401 265.854L412.367 258.746V258.703ZM409.155 235.15C412.135 233.29 414.496 230.588 415.94 227.386C417.384 224.184 417.846 220.626 417.268 217.161C416.69 213.697 415.098 210.481 412.692 207.921C410.287 205.362 407.176 203.573 403.754 202.781C400.332 201.989 396.752 202.23 393.466 203.472C390.181 204.715 387.338 206.904 385.296 209.763C383.255 212.621 382.107 216.021 381.998 219.532C381.888 223.043 382.822 226.507 384.682 229.487C385.914 231.469 387.525 233.188 389.422 234.547C391.319 235.906 393.466 236.877 395.738 237.406C398.011 237.935 400.366 238.011 402.668 237.629C404.97 237.248 407.175 236.416 409.155 235.183V235.15Z" fill="#E0E0E0"/>
<path fill-rule="evenodd" clip-rule="evenodd" d="M450.351 312.039C448.513 312.601 446.609 312.917 444.688 312.981L442.375 317.766L433.811 315.786V310.433C432.111 309.534 430.538 308.415 429.132 307.104L424.111 308.849L419.454 301.355L423.233 297.618C422.663 295.782 422.346 293.877 422.291 291.955L417.495 289.632L419.476 281.067H424.829C425.734 279.372 426.857 277.803 428.169 276.4L426.413 271.379L433.907 266.711L437.654 270.49C439.492 269.928 441.396 269.611 443.317 269.548L445.63 264.752L454.194 266.743V272.096C455.892 272.992 457.462 274.112 458.862 275.425L463.894 273.68L468.551 281.174L464.771 284.921C465.342 286.757 465.659 288.663 465.714 290.585L470.51 292.897L468.529 301.462H463.176C462.274 303.161 461.151 304.735 459.836 306.14L461.592 311.161L454.098 315.829L450.351 312.05V312.039ZM448.649 299.524C450.236 298.535 451.494 297.098 452.264 295.394C453.035 293.69 453.282 291.796 452.976 289.951C452.669 288.106 451.822 286.394 450.543 285.031C449.263 283.667 447.607 282.714 445.786 282.292C443.964 281.869 442.058 281.996 440.309 282.657C438.56 283.318 437.046 284.483 435.959 286.005C434.872 287.526 434.26 289.336 434.202 291.205C434.143 293.074 434.641 294.918 435.631 296.505C436.957 298.631 439.074 300.143 441.515 300.709C443.956 301.275 446.522 300.849 448.649 299.524Z" fill="#EBEBEB"/>
<path d="M359.898 424.427L187.087 406.624C184.554 406.354 182.231 405.092 180.626 403.114C179.021 401.135 178.265 398.602 178.522 396.068L208.423 105.536C208.799 101.934 210.587 98.6274 213.397 96.3416C216.207 94.0558 219.808 92.9774 223.411 93.3426L388.194 110.311C391.796 110.687 395.103 112.475 397.388 115.285C399.674 118.094 400.753 121.696 400.387 125.299L370.411 415.831C370.149 418.361 368.896 420.686 366.927 422.296C364.957 423.907 362.431 424.673 359.898 424.427Z" fill="#00875F"/>
<path opacity="0.4" d="M359.898 424.427L187.087 406.624C184.554 406.354 182.231 405.092 180.626 403.114C179.021 401.135 178.265 398.602 178.522 396.068L208.423 105.536C208.799 101.934 210.587 98.6274 213.397 96.3416C216.207 94.0558 219.808 92.9774 223.411 93.3426L388.194 110.311C391.796 110.687 395.103 112.475 397.388 115.285C399.674 118.094 400.753 121.696 400.387 125.299L370.411 415.831C370.149 418.361 368.896 420.686 366.927 422.296C364.957 423.907 362.431 424.673 359.898 424.427Z" fill="black"/>
<path d="M342.459 422.629L169.615 404.836C167.08 404.566 164.755 403.302 163.15 401.322C161.545 399.341 160.79 396.805 161.051 394.269L191.027 103.738C191.21 101.953 191.743 100.222 192.595 98.6428C193.448 97.064 194.603 95.6686 195.995 94.5362C197.386 93.4039 198.988 92.5568 200.707 92.0434C202.426 91.53 204.23 91.3603 206.015 91.5441L370.754 108.481C372.539 108.664 374.27 109.197 375.849 110.049C377.428 110.902 378.823 112.057 379.956 113.449C381.088 114.84 381.935 116.442 382.448 118.161C382.962 119.88 383.131 121.684 382.948 123.468L352.972 414.011C352.715 416.545 351.464 418.875 349.494 420.49C347.524 422.105 344.994 422.874 342.459 422.629Z" fill="#00875F"/>
<path d="M254.596 343.548L195.002 337.411C193.579 337.264 192.306 338.299 192.16 339.723L189.745 363.173C189.598 364.596 190.633 365.869 192.056 366.015L251.65 372.153C253.074 372.299 254.346 371.264 254.493 369.841L256.908 346.391C257.054 344.968 256.019 343.695 254.596 343.548Z" fill="#00875F"/>
<g opacity="0.4">
<path d="M254.596 343.548L195.002 337.411C193.579 337.264 192.306 338.299 192.16 339.723L189.745 363.173C189.598 364.596 190.633 365.869 192.056 366.015L251.65 372.153C253.074 372.299 254.346 371.264 254.493 369.841L256.908 346.391C257.054 344.968 256.019 343.695 254.596 343.548Z" fill="black"/>
</g>
<path d="M203.022 124.024L196.392 188.4L360.499 205.301L367.129 140.925L203.022 124.024Z" fill="#FAFAFA"/>
<path d="M360.509 205.303V205.302L359.706 205.207L357.34 204.95L348.186 203.965L314.035 200.378L196.697 188.158C196.687 188.249 196.678 188.34 196.668 188.431L196.433 188.131L196.697 188.158C198.757 168.211 200.986 146.616 203.288 124.332L203.006 124.304L203.317 124.057C203.307 124.149 203.298 124.241 203.288 124.332L366.923 141.124C364.919 160.968 363.267 176.969 362.2 188.035C361.643 193.591 361.215 197.895 360.926 200.828C360.787 202.284 360.701 203.408 360.605 204.157C360.512 204.882 360.509 205.277 360.509 205.302L360.658 204.179C360.744 203.429 360.862 202.327 361.022 200.881C361.312 197.97 361.793 193.677 362.382 188.152C363.549 177.029 365.208 160.917 367.35 140.93V140.737H367.157L203.006 123.747H202.728V124.025C200.394 146.539 198.178 168.293 196.112 188.409V188.666H196.379L314.142 200.678L348.293 204.115L357.393 205.014L359.727 205.239C360.191 205.295 360.454 205.302 360.509 205.303Z" fill="#D9D9D9"/>
<path d="M359.727 205.239C360.252 205.303 360.519 205.303 360.519 205.303L360.509 205.302M359.727 205.239L357.393 205.014L348.293 204.115L314.142 200.678L196.379 188.666H196.112V188.409C198.178 168.293 200.394 146.539 202.728 124.025V123.747H203.006L367.157 140.737H367.35V140.93C365.208 160.917 363.549 177.029 362.382 188.152C361.793 193.677 361.312 197.97 361.022 200.881C360.862 202.327 360.744 203.429 360.658 204.179L360.509 205.302M359.727 205.239C360.191 205.295 360.454 205.302 360.509 205.303V205.302M360.509 205.302L359.706 205.207L357.34 204.95L348.186 203.965L314.035 200.378L196.697 188.158M360.509 205.302C360.509 205.277 360.512 204.882 360.605 204.157C360.701 203.408 360.787 202.284 360.926 200.828C361.215 197.895 361.643 193.591 362.2 188.035C363.267 176.969 364.919 160.968 366.923 141.124L203.288 124.332M196.697 188.158C196.687 188.249 196.678 188.34 196.668 188.431L196.433 188.131L196.697 188.158ZM196.697 188.158C198.757 168.211 200.986 146.616 203.288 124.332M203.288 124.332L203.006 124.304L203.317 124.057C203.307 124.149 203.298 124.241 203.288 124.332Z" stroke="#263238" stroke-width="0.5"/>
<path d="M228.6 217.646L205.139 215.23C203.916 215.104 202.822 215.994 202.696 217.217L200.28 240.677C200.154 241.901 201.043 242.995 202.267 243.121L225.727 245.537C226.951 245.663 228.044 244.773 228.17 243.55L230.587 220.089C230.713 218.866 229.823 217.772 228.6 217.646Z" fill="#00875F"/>
<g opacity="0.4">
<path d="M228.6 217.646L205.139 215.23C203.916 215.104 202.822 215.994 202.696 217.217L200.28 240.677C200.154 241.901 201.043 242.995 202.267 243.121L225.727 245.537C226.951 245.663 228.045 244.773 228.171 243.55L230.587 220.089C230.713 218.866 229.823 217.772 228.6 217.646Z" fill="black"/>
</g>
<path d="M224.299 217.207L200.839 214.791C199.615 214.665 198.522 215.555 198.396 216.778L195.979 240.239C195.853 241.462 196.743 242.556 197.966 242.682L221.427 245.098C222.65 245.224 223.744 244.335 223.87 243.111L226.286 219.651C226.412 218.427 225.523 217.333 224.299 217.207Z" fill="#263238"/>
<path d="M213.701 224.22L212.513 235.878L209.815 235.6L210.789 226.136L208.466 225.89L208.691 223.749L213.701 224.22Z" fill="white"/>
<path d="M267.499 221.663L244.038 219.247C242.815 219.121 241.721 220.01 241.595 221.234L239.179 244.694C239.053 245.918 239.942 247.012 241.166 247.138L264.626 249.554C265.849 249.68 266.943 248.79 267.069 247.567L269.485 224.106C269.611 222.883 268.722 221.789 267.499 221.663Z" fill="#00875F"/>
<g opacity="0.4">
<path d="M267.499 221.663L244.038 219.247C242.815 219.121 241.721 220.01 241.595 221.234L239.179 244.694C239.053 245.918 239.942 247.012 241.166 247.138L264.626 249.554C265.85 249.68 266.943 248.79 267.069 247.567L269.486 224.106C269.612 222.883 268.722 221.789 267.499 221.663Z" fill="black"/>
</g>
<path d="M263.189 221.214L239.728 218.798C238.505 218.672 237.411 219.561 237.285 220.785L234.869 244.245C234.743 245.468 235.632 246.562 236.856 246.688L260.316 249.104C261.54 249.23 262.633 248.341 262.759 247.118L265.176 223.657C265.302 222.434 264.412 221.34 263.189 221.214Z" fill="#263238"/>
<path d="M255.828 238.095L255.603 240.236L246.825 239.336L247.007 237.591L251.921 233.812C253.055 232.945 253.302 232.367 253.355 231.8C253.452 230.89 252.873 230.29 251.642 230.162C251.178 230.096 250.705 230.146 250.264 230.306C249.823 230.467 249.429 230.733 249.116 231.082L247.285 229.616C247.89 228.957 248.648 228.459 249.493 228.166C250.337 227.872 251.241 227.793 252.124 227.935C254.715 228.202 256.31 229.701 256.085 231.81C255.978 232.945 255.55 233.951 253.773 235.279L250.839 237.527L255.828 238.095Z" fill="white"/>
<path d="M307.821 225.815L284.36 223.399C283.137 223.273 282.043 224.163 281.917 225.386L279.501 248.847C279.375 250.07 280.265 251.164 281.488 251.29L304.948 253.706C306.172 253.832 307.266 252.943 307.392 251.719L309.808 228.259C309.934 227.035 309.044 225.941 307.821 225.815Z" fill="#00875F"/>
<g opacity="0.4">
<path d="M307.821 225.815L284.36 223.399C283.137 223.273 282.043 224.163 281.917 225.386L279.501 248.847C279.375 250.07 280.265 251.164 281.488 251.29L304.948 253.706C306.172 253.832 307.266 252.943 307.392 251.719L309.808 228.259C309.934 227.035 309.044 225.941 307.821 225.815Z" fill="black"/>
</g>
<path d="M303.522 225.366L280.061 222.95C278.838 222.824 277.744 223.714 277.618 224.937L275.202 248.398C275.076 249.621 275.965 250.715 277.189 250.841L300.649 253.257C301.873 253.383 302.966 252.493 303.092 251.27L305.509 227.809C305.635 226.586 304.745 225.492 303.522 225.366Z" fill="#263238"/>
<path d="M296.199 240.867C295.996 242.826 294.305 244.464 290.996 244.133C289.434 243.992 287.947 243.401 286.714 242.43L287.967 240.471C288.864 241.262 289.988 241.749 291.178 241.863C292.527 242.002 293.416 241.542 293.512 240.589C293.609 239.636 293.009 239.101 291.489 238.94L290.258 238.812L290.44 237.035L293.105 234.572L288.159 234.069L288.384 231.928L296.521 232.763L296.339 234.508L293.405 237.227C294.25 237.357 295.012 237.809 295.533 238.487C296.053 239.165 296.292 240.017 296.199 240.867Z" fill="white"/>
<path d="M348.154 229.968L324.693 227.552C323.47 227.426 322.376 228.315 322.25 229.539L319.834 252.999C319.708 254.223 320.598 255.316 321.821 255.442L345.281 257.859C346.505 257.985 347.599 257.095 347.725 255.872L350.141 232.411C350.267 231.188 349.377 230.094 348.154 229.968Z" fill="#00875F"/>
<g opacity="0.4">
<path d="M348.154 229.968L324.693 227.552C323.47 227.426 322.376 228.315 322.25 229.539L319.834 252.999C319.708 254.223 320.598 255.316 321.821 255.442L345.282 257.859C346.505 257.985 347.599 257.095 347.725 255.872L350.141 232.411C350.267 231.188 349.377 230.094 348.154 229.968Z" fill="black"/>
</g>
<path d="M343.94 229.517L320.479 227.101C319.256 226.975 318.162 227.864 318.036 229.087L315.62 252.548C315.494 253.771 316.384 254.865 317.607 254.991L341.068 257.407C342.291 257.533 343.385 256.644 343.511 255.42L345.927 231.96C346.053 230.736 345.163 229.643 343.94 229.517Z" fill="#263238"/>
<path d="M324.456 240.62L324.346 241.685L336.806 242.968L336.916 241.904L324.456 240.62Z" fill="white"/>
<path d="M333.23 236.585C333.19 236.985 333.032 237.365 332.777 237.675C332.521 237.986 332.179 238.214 331.793 238.33C331.408 238.446 330.997 238.445 330.612 238.327C330.228 238.21 329.886 237.981 329.632 237.669C329.377 237.358 329.22 236.978 329.182 236.577C329.143 236.177 329.224 235.774 329.415 235.419C329.605 235.065 329.896 234.775 330.252 234.586C330.607 234.397 331.01 234.318 331.411 234.358C331.947 234.412 332.44 234.677 332.782 235.095C333.123 235.512 333.284 236.048 333.23 236.585Z" fill="white"/>
<path d="M332.106 247.451C332.066 247.852 331.907 248.232 331.651 248.542C331.395 248.853 331.052 249.08 330.666 249.196C330.28 249.311 329.869 249.31 329.484 249.191C329.099 249.073 328.758 248.842 328.504 248.53C328.25 248.217 328.094 247.836 328.057 247.435C328.02 247.034 328.103 246.631 328.295 246.277C328.487 245.923 328.779 245.634 329.136 245.447C329.492 245.259 329.897 245.182 330.297 245.224C330.832 245.281 331.322 245.547 331.661 245.965C332 246.382 332.16 246.916 332.106 247.451Z" fill="white"/>
<path d="M224.393 258.517L200.932 256.101C199.709 255.975 198.615 256.864 198.489 258.088L196.073 281.548C195.947 282.772 196.836 283.865 198.06 283.991L221.52 286.408C222.744 286.534 223.838 285.644 223.964 284.421L226.38 260.96C226.506 259.737 225.616 258.643 224.393 258.517Z" fill="#00875F"/>
<g opacity="0.4">
<path d="M224.393 258.517L200.932 256.101C199.709 255.975 198.615 256.864 198.489 258.088L196.073 281.548C195.947 282.772 196.836 283.865 198.06 283.991L221.52 286.408C222.744 286.534 223.838 285.644 223.964 284.421L226.38 260.96C226.506 259.737 225.616 258.643 224.393 258.517Z" fill="black"/>
</g>
<path d="M220.092 258.078L196.632 255.662C195.408 255.536 194.315 256.426 194.189 257.649L191.772 281.11C191.646 282.333 192.536 283.427 193.759 283.553L217.22 285.969C218.443 286.095 219.537 285.205 219.663 283.982L222.079 260.521C222.205 259.298 221.316 258.204 220.092 258.078Z" fill="#263238"/>
<path d="M211.945 274.612L210.051 274.419L209.794 276.86L207.171 276.592L207.428 274.151L201.165 273.498L201.347 271.689L207.588 264.88L210.415 265.18L204.612 271.603L207.738 271.925L207.963 269.783L210.5 270.04L210.275 272.182L212.17 272.374L211.945 274.612Z" fill="white"/>
<path d="M263.292 262.523L239.831 260.107C238.608 259.981 237.514 260.87 237.388 262.094L234.972 285.554C234.846 286.778 235.735 287.872 236.959 287.998L260.419 290.414C261.643 290.54 262.736 289.65 262.862 288.427L265.278 264.966C265.404 263.743 264.515 262.649 263.292 262.523Z" fill="#00875F"/>
<g opacity="0.4">
<path d="M263.292 262.523L239.831 260.107C238.608 259.981 237.514 260.87 237.388 262.094L234.972 285.554C234.846 286.778 235.735 287.872 236.959 287.998L260.419 290.414C261.643 290.54 262.736 289.65 262.862 288.427L265.278 264.966C265.404 263.743 264.515 262.649 263.292 262.523Z" fill="black"/>
</g>
<path d="M258.992 262.074L235.532 259.658C234.308 259.532 233.215 260.421 233.089 261.645L230.672 285.105C230.546 286.328 231.436 287.422 232.659 287.548L256.12 289.964C257.343 290.09 258.437 289.201 258.563 287.978L260.979 264.517C261.105 263.294 260.216 262.2 258.992 262.074Z" fill="#263238"/>
<path d="M250.486 277.363C250.283 279.419 248.58 281.057 245.262 280.714C243.7 280.572 242.213 279.98 240.979 279.012L242.253 277.063C243.149 277.855 244.275 278.339 245.465 278.444C246.814 278.583 247.703 278.112 247.799 277.16C247.895 276.207 247.36 275.586 245.251 275.372L242.275 275.061L243.549 268.638L250.636 269.366L250.422 271.507L245.572 271.004L245.155 273.199L246.107 273.295C249.501 273.616 250.7 275.297 250.486 277.363Z" fill="white"/>
<path d="M303.625 266.675L280.164 264.259C278.941 264.133 277.847 265.023 277.721 266.246L275.305 289.707C275.179 290.93 276.068 292.024 277.292 292.15L300.752 294.566C301.976 294.692 303.069 293.803 303.195 292.579L305.612 269.119C305.738 267.895 304.848 266.801 303.625 266.675Z" fill="#00875F"/>
<g opacity="0.4">
<path d="M303.625 266.675L280.164 264.259C278.941 264.133 277.847 265.023 277.721 266.246L275.305 289.707C275.179 290.93 276.068 292.024 277.292 292.15L300.752 294.566C301.976 294.692 303.069 293.803 303.195 292.579L305.612 269.119C305.738 267.895 304.848 266.801 303.625 266.675Z" fill="black"/>
</g>
<path d="M299.315 266.226L275.854 263.81C274.631 263.684 273.537 264.574 273.411 265.797L270.995 289.258C270.869 290.481 271.758 291.575 272.982 291.701L296.442 294.117C297.666 294.243 298.759 293.353 298.885 292.13L301.302 268.669C301.428 267.446 300.538 266.352 299.315 266.226Z" fill="#263238"/>
<path d="M291.66 281.581C291.414 283.958 289.316 285.253 286.864 284.996C283.652 284.664 281.875 282.448 282.261 278.701C282.678 274.676 285.333 272.685 288.834 273.049C289.97 273.135 291.061 273.527 291.992 274.183L290.793 276.057C290.177 275.577 289.431 275.294 288.652 275.243C286.703 275.051 285.344 276.068 285.033 278.284C285.456 277.97 285.936 277.742 286.447 277.616C286.958 277.489 287.489 277.465 288.01 277.545C288.521 277.55 289.025 277.661 289.491 277.871C289.957 278.081 290.375 278.385 290.718 278.764C291.061 279.143 291.322 279.589 291.484 280.074C291.646 280.559 291.706 281.072 291.66 281.581ZM289.037 281.442C289.065 281.193 289.039 280.941 288.961 280.703C288.883 280.465 288.755 280.246 288.586 280.062C288.417 279.877 288.21 279.731 287.979 279.633C287.749 279.535 287.5 279.487 287.249 279.493C287.003 279.441 286.749 279.44 286.502 279.49C286.256 279.541 286.022 279.641 285.816 279.786C285.61 279.931 285.436 280.116 285.305 280.331C285.174 280.546 285.089 280.786 285.055 281.035C284.948 282.031 285.622 282.834 286.918 282.973C287.157 283.022 287.403 283.021 287.641 282.969C287.88 282.916 288.105 282.815 288.301 282.671C288.498 282.527 288.662 282.343 288.784 282.131C288.905 281.919 288.98 281.685 289.005 281.442H289.037Z" fill="white"/>
<path d="M343.936 270.827L320.476 268.411C319.252 268.285 318.158 269.174 318.032 270.398L315.616 293.858C315.49 295.081 316.38 296.175 317.603 296.301L341.064 298.717C342.287 298.843 343.381 297.954 343.507 296.731L345.923 273.27C346.049 272.047 345.16 270.953 343.936 270.827Z" fill="#00875F"/>
<g opacity="0.4">
<path d="M343.936 270.827L320.476 268.411C319.252 268.285 318.158 269.174 318.032 270.398L315.616 293.858C315.49 295.081 316.38 296.175 317.603 296.301L341.064 298.717C342.287 298.843 343.381 297.954 343.507 296.731L345.923 273.27C346.049 272.047 345.16 270.953 343.936 270.827Z" fill="black"/>
</g>
<path d="M339.637 270.377L316.176 267.961C314.953 267.835 313.859 268.725 313.733 269.948L311.317 293.409C311.191 294.632 312.081 295.726 313.304 295.852L336.765 298.268C337.988 298.394 339.082 297.505 339.208 296.281L341.624 272.821C341.75 271.597 340.86 270.503 339.637 270.377Z" fill="#263238"/>
<path d="M331.046 278.825L321.21 286.581L321.873 287.422L331.709 279.666L331.046 278.825Z" fill="white"/>
<path d="M322.935 277.971L322.104 278.646L330.007 288.364L330.838 287.689L322.935 277.971Z" fill="white"/>
<path d="M220.22 299.05L196.759 296.634C195.536 296.508 194.442 297.397 194.316 298.621L191.9 322.081C191.774 323.305 192.663 324.399 193.887 324.525L217.347 326.941C218.571 327.067 219.664 326.177 219.79 324.954L222.207 301.493C222.333 300.27 221.443 299.176 220.22 299.05Z" fill="#00875F"/>
<g opacity="0.4">
<path d="M220.22 299.05L196.759 296.634C195.536 296.508 194.442 297.397 194.316 298.621L191.9 322.081C191.774 323.305 192.663 324.399 193.887 324.525L217.347 326.941C218.571 327.067 219.664 326.177 219.79 324.954L222.207 301.493C222.333 300.27 221.443 299.176 220.22 299.05Z" fill="black"/>
</g>
<path d="M215.919 298.611L192.459 296.195C191.235 296.069 190.141 296.959 190.015 298.182L187.599 321.643C187.473 322.866 188.363 323.96 189.586 324.086L213.047 326.502C214.27 326.628 215.364 325.738 215.49 324.515L217.906 301.055C218.032 299.831 217.143 298.737 215.919 298.611Z" fill="#263238"/>
<path d="M207.171 305.797L206.989 307.542L201.636 316.985L198.713 316.674L203.852 307.671L199.998 307.275L199.805 309.17L197.407 308.923L197.835 304.845L207.171 305.797Z" fill="white"/>
<path d="M259.118 303.056L235.658 300.64C234.434 300.514 233.341 301.404 233.215 302.627L230.798 326.088C230.672 327.311 231.562 328.405 232.785 328.531L256.246 330.947C257.469 331.073 258.563 330.183 258.689 328.96L261.105 305.499C261.231 304.276 260.342 303.182 259.118 303.056Z" fill="#00875F"/>
<g opacity="0.4">
<path d="M259.118 303.056L235.658 300.64C234.434 300.514 233.341 301.404 233.215 302.627L230.798 326.088C230.672 327.311 231.562 328.405 232.785 328.531L256.246 330.947C257.469 331.073 258.563 330.183 258.689 328.96L261.105 305.499C261.231 304.276 260.342 303.182 259.118 303.056Z" fill="black"/>
</g>
<path d="M254.809 302.607L231.348 300.191C230.125 300.065 229.031 300.954 228.905 302.178L226.489 325.638C226.363 326.862 227.252 327.956 228.476 328.082L251.936 330.498C253.159 330.624 254.253 329.734 254.379 328.511L256.795 305.05C256.921 303.827 256.032 302.733 254.809 302.607Z" fill="#263238"/>
<path d="M247.232 318.312C247.007 320.454 244.908 321.685 241.954 321.374C238.999 321.064 237.211 319.49 237.436 317.306C237.486 316.725 237.707 316.173 238.071 315.717C238.435 315.262 238.925 314.925 239.481 314.747C239.092 314.459 238.787 314.071 238.599 313.625C238.411 313.179 238.345 312.69 238.41 312.21C238.624 310.165 240.551 309.084 243.217 309.352C245.883 309.619 247.585 311.097 247.381 313.142C247.338 313.627 247.165 314.091 246.881 314.487C246.596 314.882 246.211 315.194 245.765 315.39C246.27 315.678 246.678 316.11 246.939 316.63C247.2 317.15 247.302 317.735 247.232 318.312ZM244.512 317.948C244.619 316.878 243.838 316.203 242.5 316.064C241.161 315.925 240.273 316.471 240.166 317.499C240.059 318.527 240.819 319.265 242.157 319.404C243.495 319.544 244.416 318.933 244.555 317.906L244.512 317.948ZM241.044 312.596C240.947 313.473 241.59 314.094 242.682 314.212C243.774 314.33 244.566 313.848 244.662 312.97C244.759 312.092 244.084 311.429 242.981 311.322C241.879 311.215 241.129 311.653 241.044 312.563V312.596Z" fill="white"/>
<path d="M299.441 307.209L275.98 304.792C274.757 304.666 273.663 305.556 273.537 306.779L271.121 330.24C270.995 331.463 271.884 332.557 273.108 332.683L296.568 335.099C297.792 335.225 298.886 334.336 299.012 333.112L301.428 309.652C301.554 308.428 300.664 307.335 299.441 307.209Z" fill="#00875F"/>
<g opacity="0.4">
<path d="M299.441 307.209L275.98 304.792C274.757 304.666 273.663 305.556 273.537 306.779L271.121 330.24C270.995 331.463 271.884 332.557 273.108 332.683L296.568 335.099C297.792 335.225 298.886 334.336 299.012 333.112L301.428 309.652C301.554 308.428 300.664 307.335 299.441 307.209Z" fill="black"/>
</g>
<path d="M294.356 304.883L271.007 302.524C269.79 302.401 268.703 303.289 268.58 304.506L266.222 327.855C266.099 329.073 266.986 330.159 268.204 330.282L291.552 332.641C292.77 332.764 293.857 331.877 293.98 330.659L296.338 307.31C296.461 306.093 295.574 305.006 294.356 304.883Z" fill="#263238"/>
<path d="M287.378 319.683C286.96 323.708 284.327 325.699 280.805 325.335C279.676 325.252 278.592 324.864 277.668 324.211L278.867 322.338C279.481 322.819 280.229 323.099 281.008 323.141C282.935 323.333 284.316 322.316 284.627 320.09C284.201 320.406 283.717 320.636 283.203 320.764C282.688 320.893 282.153 320.918 281.629 320.839C281.12 320.829 280.619 320.715 280.156 320.503C279.693 320.292 279.279 319.987 278.938 319.609C278.598 319.23 278.339 318.786 278.178 318.303C278.016 317.821 277.956 317.31 278 316.803C278.246 314.426 280.344 313.131 282.807 313.388C286.008 313.72 287.774 315.936 287.378 319.683ZM284.584 317.349C284.68 316.353 284.006 315.55 282.732 315.411C282.491 315.364 282.243 315.369 282.004 315.424C281.765 315.479 281.54 315.583 281.344 315.73C281.148 315.878 280.985 316.064 280.865 316.278C280.745 316.492 280.672 316.729 280.649 316.973C280.627 317.218 280.656 317.464 280.734 317.696C280.812 317.929 280.939 318.142 281.105 318.323C281.271 318.503 281.472 318.647 281.697 318.745C281.922 318.843 282.165 318.892 282.41 318.89C282.656 318.943 282.91 318.944 283.156 318.893C283.402 318.843 283.635 318.742 283.84 318.597C284.045 318.453 284.218 318.267 284.348 318.052C284.478 317.837 284.562 317.598 284.594 317.349H284.584Z" fill="white"/>
<path d="M339.763 311.36L316.303 308.944C315.079 308.818 313.985 309.707 313.859 310.931L311.443 334.391C311.317 335.615 312.207 336.708 313.43 336.834L336.891 339.251C338.114 339.377 339.208 338.487 339.334 337.264L341.75 313.803C341.876 312.58 340.987 311.486 339.763 311.36Z" fill="#00875F"/>
<g opacity="0.4">
<path d="M339.763 311.36L316.303 308.944C315.079 308.818 313.985 309.707 313.859 310.931L311.443 334.391C311.317 335.615 312.207 336.708 313.43 336.834L336.891 339.251C338.114 339.377 339.208 338.487 339.334 337.264L341.75 313.803C341.876 312.58 340.986 311.486 339.763 311.36Z" fill="black"/>
</g>
<path d="M335.464 310.911L312.003 308.495C310.78 308.369 309.686 309.258 309.56 310.481L307.144 333.942C307.018 335.165 307.908 336.259 309.131 336.385L332.591 338.801C333.815 338.927 334.909 338.038 335.035 336.814L337.451 313.354C337.577 312.13 336.687 311.037 335.464 310.911Z" fill="#263238"/>
<path d="M316.124 322.5L316.015 323.565L328.474 324.848L328.584 323.783L316.124 322.5Z" fill="white"/>
<path d="M295.232 348.099L271.771 345.683C270.548 345.557 269.454 346.447 269.328 347.67L266.912 371.131C266.786 372.354 267.675 373.448 268.899 373.574L292.359 375.99C293.583 376.116 294.676 375.227 294.802 374.003L297.219 350.543C297.345 349.319 296.455 348.225 295.232 348.099Z" fill="#00875F"/>
<g opacity="0.4">
<path d="M295.232 348.099L271.771 345.683C270.548 345.557 269.454 346.447 269.328 347.67L266.912 371.131C266.786 372.354 267.675 373.448 268.899 373.574L292.359 375.99C293.583 376.116 294.676 375.227 294.802 374.003L297.219 350.543C297.345 349.319 296.455 348.225 295.232 348.099Z" fill="black"/>
</g>
<path d="M290.922 347.65L267.461 345.234C266.238 345.108 265.144 345.998 265.018 347.221L262.602 370.682C262.476 371.905 263.365 372.999 264.589 373.125L288.049 375.541C289.273 375.667 290.367 374.777 290.493 373.554L292.909 350.093C293.035 348.87 292.145 347.776 290.922 347.65Z" fill="#263238"/>
<path d="M335.554 352.252L312.093 349.836C310.87 349.71 309.776 350.599 309.65 351.823L307.234 375.283C307.108 376.507 307.998 377.601 309.221 377.726L332.682 380.143C333.905 380.269 334.999 379.379 335.125 378.156L337.541 354.695C337.667 353.472 336.777 352.378 335.554 352.252Z" fill="#00875F"/>
<g opacity="0.4">
<path d="M335.554 352.252L312.093 349.836C310.87 349.71 309.776 350.599 309.65 351.823L307.234 375.283C307.108 376.507 307.998 377.601 309.221 377.727L332.682 380.143C333.905 380.269 334.999 379.379 335.125 378.156L337.541 354.695C337.667 353.472 336.777 352.378 335.554 352.252Z" fill="black"/>
</g>
<path d="M331.255 351.803L307.794 349.387C306.571 349.261 305.477 350.15 305.351 351.374L302.935 374.834C302.809 376.057 303.698 377.151 304.922 377.277L328.382 379.693C329.606 379.819 330.7 378.93 330.826 377.706L333.242 354.246C333.368 353.023 332.478 351.929 331.255 351.803Z" fill="#455A64"/>
<path d="M312.076 361.87L311.966 362.935L324.426 364.218L324.535 363.153L312.076 361.87Z" fill="white"/>
<path d="M311.595 366.603L311.485 367.668L323.945 368.951L324.054 367.887L311.595 366.603Z" fill="white"/>
<path d="M249.276 342.997L187.265 336.611C185.794 336.459 184.479 337.529 184.328 338.999L181.931 362.278C181.779 363.749 182.848 365.064 184.319 365.215L246.33 371.601C247.8 371.753 249.115 370.684 249.267 369.213L251.664 345.934C251.816 344.463 250.746 343.149 249.276 342.997Z" fill="#263238"/>
<path d="M214.279 353.299C214.675 349.455 217.031 347.507 219.889 347.796C222.748 348.085 224.642 350.483 224.246 354.326C223.85 358.17 221.516 360.118 218.647 359.818C215.778 359.519 213.883 357.131 214.279 353.299ZM221.538 354.048C221.816 351.404 220.992 350.215 219.654 350.076C218.315 349.937 217.277 350.933 217.009 353.577C216.742 356.221 217.555 357.41 218.883 357.549C220.21 357.688 221.27 356.682 221.538 354.048Z" fill="white"/>
<path d="M277.95 354.101L276.482 366.54L277.546 366.666L279.014 354.226L277.95 354.101Z" fill="white"/>
<path d="M271.586 359.227L271.476 360.292L283.936 361.575L284.046 360.51L271.586 359.227Z" fill="white"/>
<path d="M265.752 163.337L263.965 180.712L263.14 180.626L264.896 164.022L260.528 163.572L260.603 162.801L265.752 163.337Z" fill="#263238"/>
<path d="M280.034 181.59L279.948 182.361L268.172 181.151L268.236 180.551L276.458 173.817C278.813 171.901 279.381 170.681 279.531 169.268C279.766 166.955 278.31 165.306 275.248 164.985C274.286 164.812 273.297 164.861 272.356 165.128C271.415 165.395 270.548 165.874 269.821 166.527L269.307 165.927C270.126 165.213 271.093 164.689 272.139 164.393C273.185 164.097 274.283 164.036 275.355 164.214C278.674 164.557 280.612 166.484 280.323 169.289C280.152 170.938 279.488 172.319 276.961 174.363L269.467 180.498L280.034 181.59Z" fill="#263238"/>
<path d="M293.801 178.913C293.502 181.804 291.264 183.624 287.442 183.196C286.316 183.135 285.216 182.833 284.217 182.311C283.217 181.788 282.342 181.056 281.65 180.166L282.164 179.62C282.801 180.446 283.609 181.125 284.533 181.609C285.457 182.093 286.475 182.371 287.517 182.425C290.836 182.767 292.741 181.354 293.009 178.806C293.277 176.258 291.746 174.524 288.063 174.107L287.1 173.999L287.164 173.411L293.298 166.912L283.717 165.927L283.791 165.157L294.497 166.227L294.433 166.816L288.266 173.336C292.292 173.785 294.101 176.012 293.801 178.913Z" fill="#263238"/>
<path d="M310.93 180.476L307.151 180.091L306.637 185.112L305.813 185.026L306.327 180.005L296.349 178.935L296.414 178.335L307.237 167.565L308.201 167.662L297.495 178.303L306.391 179.224L306.841 174.802L307.665 174.888L307.205 179.299L310.984 179.695L310.93 180.476Z" fill="#263238"/>
<path d="M314.538 185.165C314.488 185.477 314.406 185.782 314.292 186.075L313.05 189.287L312.408 189.223L313.532 185.872C313.316 185.837 313.123 185.717 312.996 185.539C312.868 185.361 312.817 185.14 312.852 184.925C312.888 184.709 313.007 184.516 313.185 184.388C313.363 184.261 313.584 184.209 313.8 184.245C314.018 184.272 314.218 184.383 314.356 184.555C314.494 184.727 314.559 184.946 314.538 185.165Z" fill="#263238"/>
<path d="M331.753 182.628L327.985 182.243L327.471 187.253L326.646 187.167L327.16 182.157L317.183 181.087L317.247 180.487L328.06 169.749L329.023 169.856L318.317 180.498L327.214 181.408L327.663 176.986L328.488 177.072L328.06 181.493L331.839 181.879L331.753 182.628Z" fill="#263238"/>
<path d="M344.664 184.063C344.364 186.889 342.18 188.87 338.241 188.463C337.12 188.399 336.026 188.095 335.032 187.572C334.039 187.05 333.169 186.32 332.481 185.433L333.016 184.887C333.65 185.717 334.458 186.397 335.382 186.882C336.307 187.366 337.326 187.643 338.369 187.692C341.763 188.045 343.615 186.429 343.872 183.966C344.15 181.29 342.716 179.534 337.748 179.02L334.376 178.678L336.089 170.574L345.05 171.505L344.975 172.276L336.699 171.419L335.275 177.993L337.952 178.271C343.262 178.817 344.975 180.98 344.664 184.063Z" fill="#263238"/>
</svg>
